<?xml version="1.0" standalone="no"?>
<!DOCTYPE svg PUBLIC "-//W3C//DTD SVG 1.1//EN" "http://www.w3.org/Graphics/SVG/1.1/DTD/svg11.dtd">
<!--Generator: Xara Designer (www.xara.com), SVG filter version: 6.5.0.22-->
<svg fill="none" fill-rule="evenodd" stroke="black" stroke-width="0.501" stroke-linejoin="bevel" stroke-miterlimit="10" font-family="Times New Roman" font-size="16" style="font-variant-ligatures:none" xmlns:xlink="http://www.w3.org/1999/xlink" xmlns="http://www.w3.org/2000/svg" version="1.1" overflow="visible" width="444.381pt" height="444.389pt" viewBox="1257.64 -1145.2 444.381 444.389">
 <defs>
	</defs>
 <g id="Page background" transform="scale(1 -1)"/>
 <g id="Layer 1" transform="scale(1 -1)">
  <g id="Group" stroke="#0a006b" stroke-linejoin="miter">
   <rect x="-215.846" y="-215.842" width="431.692" height="431.684" rx="385.867050960759" ry="385.867050960759" transform="translate(1479.83 923.008) rotate(90)" stroke="#0a006b" stroke-width="12.696"/>
   <path d="M 1523.94,789.391 L 1602.53,787.665 C 1610.32,787.494 1616.56,793.805 1616.45,801.748 L 1615.33,880.862 C 1615.22,888.807 1606.22,901.209 1600.68,895.657 C 1604.07,850.35 1595.43,809.63 1596.16,806.649 C 1591.68,807.096 1544.68,800.714 1509.87,807.258 C 1504.33,801.708 1516.15,789.565 1523.94,789.391 Z" fill="#0a006b" stroke="#0a006b" stroke-width="3.205" marker-start="none" marker-end="none"/>
   <path d="M 1436.55,1057.66 L 1357.97,1059.38 C 1350.17,1059.55 1343.93,1053.24 1344.04,1045.3 L 1345.17,966.185 C 1345.28,958.24 1354.28,945.838 1359.81,951.39 C 1356.42,996.697 1365.06,1037.42 1364.34,1040.4 C 1368.81,1039.95 1415.82,1046.33 1450.63,1039.79 C 1456.16,1045.34 1444.35,1057.48 1436.55,1057.66 Z" fill="#0a006b" stroke="#0a006b" stroke-width="3.205" marker-start="none" marker-end="none"/>
   <rect x="-183.102" y="-7.976" width="366.204" height="15.953" rx="411.255818880924" ry="411.255818880924" transform="translate(1479.83 923.008) rotate(134.697) skewX(4.27826)" fill="#0a006b" stroke-width="0.413" stroke="none"/>
  </g>
 </g>
</svg>
